<?xml version="1.0" standalone="no"?><!DOCTYPE svg PUBLIC "-//W3C//DTD SVG 1.1//EN" "http://www.w3.org/Graphics/SVG/1.1/DTD/svg11.dtd"><svg t="1598235705772" class="icon" viewBox="0 0 1024 1024" version="1.1" xmlns="http://www.w3.org/2000/svg" p-id="2148" xmlns:xlink="http://www.w3.org/1999/xlink" width="200" height="200"><defs><style type="text/css"></style></defs><path d="M489.6 790.4c3.2 3.2 6.4 6.4 9.6 6.4 3.2 0 6.4 3.2 12.8 3.2 3.2 0 9.6 0 12.8-3.2 3.2-3.2 6.4-3.2 9.6-6.4l272-272c12.8-12.8 12.8-32 0-44.8-12.8-12.8-32-12.8-44.8 0L544 691.2V96c0-19.2-12.8-32-32-32s-32 12.8-32 32v595.2l-217.6-217.6c-12.8-12.8-32-12.8-44.8 0-12.8 12.8-12.8 32 0 44.8l272 272z" p-id="2149" fill="#515151"></path><path d="M960 576c-19.2 0-32 12.8-32 32v256c0 19.2-12.8 32-32 32H128c-19.2 0-32-12.8-32-32v-256c0-19.2-12.8-32-32-32s-32 12.8-32 32v256c0 54.4 41.6 96 96 96h768c54.4 0 96-41.6 96-96v-256c0-19.2-12.8-32-32-32z" p-id="2150" fill="#515151"></path></svg>